<svg xmlns="http://www.w3.org/2000/svg" viewBox="0 0 64 64" role="img" aria-label="Concrete Jungle Sports">
  <rect width="64" height="64" rx="10" fill="#111111"/>
  <path d="M12 49V15h40v34H12Z" fill="#006BB6"/>
  <path d="M12 23h40v7H12v-7Zm0 15h40v7H12v-7Z" fill="#F58426"/>
  <path d="M24 45c-6.1-2.8-9.5-7.4-9.5-13S17.9 21.8 24 19v6.4c-2.3 1.7-3.5 3.9-3.5 6.6s1.2 4.9 3.5 6.6V45Zm16 0v-6.4c2.3-1.7 3.5-3.9 3.5-6.6s-1.2-4.9-3.5-6.6V19c6.1 2.8 9.5 7.4 9.5 13S46.1 42.2 40 45Z" fill="#FFFFFF"/>
  <path d="M28 19h8v26h-8V19Z" fill="#111111"/>
</svg>
